# xmcd
#
# Track frame offsets:
#	150
#	19123
#	36142
#	51285
#	67807
#	87760
#	106949
#	120999
#	139861
#	160260
#	183314
#	202685
#	221464
#	238250
#	258085
#	273723
#
# Disc length: 4005 seconds
#
# Revision: 0
# Processed by: cddbd v1.5.1PL0 Copyright (c) Steve Scherf et al.
# Submitted via: dBpowerAMP V4.0
#
DISCID=d50fa310
DTITLE=Canto e Encanto Nativo - Volume 12
DYEAR=1900
DGENRE=Gaúchas
TTITLE0=Na paz do campo
TTITLE1=Prece à patria
TTITLE2=O vento
TTITLE3=Alma de fronteira
TTITLE4=Mãe campeira
TTITLE5=Ave Maria
TTITLE6=De tanto pelear
TTITLE7=Rio guri
TTITLE8=Cabanha dos lagos
TTITLE9=Noites, penas e guitarra
TTITLE10=Saudade da infância
TTITLE11=Pátria Colorada
TTITLE12=Homem rural
TTITLE13=Romance de lua e estrada
TTITLE14=Pedro Guará
TTITLE15=Romance do mascarado
EXTD=Canto e Encanto Nativo\nRipado por Elsio
EXTT0=
EXTT1=
EXTT2=
EXTT3=
EXTT4=
EXTT5=
EXTT6=
EXTT7=
EXTT8=
EXTT9=
EXTT10=
EXTT11=
EXTT12=
EXTT13=
EXTT14=
EXTT15=
PLAYORDER=
